<!DOCTYPE svg PUBLIC "-//W3C//DTD SVG 1.1//EN" "http://www.w3.org/Graphics/SVG/1.1/DTD/svg11.dtd">
<!-- Uploaded to: SVG Repo, www.svgrepo.com, Transformed by: SVG Repo Mixer Tools -->
<svg width="64px" height="64px" viewBox="-3.52 -3.52 39.04 39.04" id="Layer_1" version="1.1" xml:space="preserve" xmlns="http://www.w3.org/2000/svg" xmlns:xlink="http://www.w3.org/1999/xlink" fill="#000000" transform="rotate(0)">
<g id="SVGRepo_bgCarrier" stroke-width="0"/>
<g id="SVGRepo_tracerCarrier" stroke-linecap="round" stroke-linejoin="round" stroke="#CCCCCC" stroke-width="1.28"> <style type="text/css"> .st0{fill:#00BBB4;} .st1{fill:#2b3035;} .st2{fill:#2b3035;} </style> <g> <g> <path class="st0" d="M5,14.015625V30.5h12.0424805v-7.9232178c0-1.8409424,1.4923706-3.333313,3.333313-3.333313 s3.333374,1.4923706,3.333374,3.333313V30.5H27V14.015625H5z M13.553833,20.75h-4c-0.5523071,0-1-0.4477539-1-1 c0-0.5523071,0.4476929-1,1-1h4c0.5523071,0,1,0.4476929,1,1C14.553833,20.3022461,14.1061401,20.75,13.553833,20.75z"/> </g> <g> <path class="st1" d="M31,31.5H1c-0.5522461,0-1-0.4477539-1-1s0.4477539-1,1-1h30c0.5522461,0,1,0.4477539,1,1 S31.5522461,31.5,31,31.5z"/> </g> <g> <path class="st2" d="M5.2246366,12.531251h-0.00001c-3.0098128,0-5.0521717-3.0604792-3.8971148-5.8398342l2.5730567-6.1914167 h6.6666656L9.4049702,8.8900909C9.1158504,10.9771776,7.3316536,12.531251,5.2246366,12.531251z"/> </g> <g> <path class="st2" d="M16.1548214,12.531251h-0.3096428c-2.5610209,0-4.5317516-2.2625523-4.1803341-4.7993479l1.0018225-7.2319031 h6.666667l1.0018215,7.2319031C20.686573,10.2686987,18.7158413,12.531251,16.1548214,12.531251z"/> </g> <g> <path class="st2" d="M26.7753735,12.531251h-0.0000095c-2.1070175,0-3.8912144-1.5540733-4.1803341-3.64116L21.432766,0.4999999 h6.666666l2.5730553,6.1914167C31.8275452,9.4707718,29.7851868,12.531251,26.7753735,12.531251z"/> </g> </g> </g>
<g id="SVGRepo_iconCarrier"> <style type="text/css"> .st0{fill:#00BBB4;} .st1{fill:#2b3035;} .st2{fill:#2b3035;} </style> <g> <g> <path class="st0" d="M5,14.015625V30.5h12.0424805v-7.9232178c0-1.8409424,1.4923706-3.333313,3.333313-3.333313 s3.333374,1.4923706,3.333374,3.333313V30.5H27V14.015625H5z M13.553833,20.75h-4c-0.5523071,0-1-0.4477539-1-1 c0-0.5523071,0.4476929-1,1-1h4c0.5523071,0,1,0.4476929,1,1C14.553833,20.3022461,14.1061401,20.75,13.553833,20.75z"/> </g> <g> <path class="st1" d="M31,31.5H1c-0.5522461,0-1-0.4477539-1-1s0.4477539-1,1-1h30c0.5522461,0,1,0.4477539,1,1 S31.5522461,31.5,31,31.5z"/> </g> <g> <path class="st2" d="M5.2246366,12.531251h-0.00001c-3.0098128,0-5.0521717-3.0604792-3.8971148-5.8398342l2.5730567-6.1914167 h6.6666656L9.4049702,8.8900909C9.1158504,10.9771776,7.3316536,12.531251,5.2246366,12.531251z"/> </g> <g> <path class="st2" d="M16.1548214,12.531251h-0.3096428c-2.5610209,0-4.5317516-2.2625523-4.1803341-4.7993479l1.0018225-7.2319031 h6.666667l1.0018215,7.2319031C20.686573,10.2686987,18.7158413,12.531251,16.1548214,12.531251z"/> </g> <g> <path class="st2" d="M26.7753735,12.531251h-0.0000095c-2.1070175,0-3.8912144-1.5540733-4.1803341-3.64116L21.432766,0.4999999 h6.666666l2.5730553,6.1914167C31.8275452,9.4707718,29.7851868,12.531251,26.7753735,12.531251z"/> </g> </g> </g>
</svg>